# xmcd
#
# Track frame offsets:
#	150
#	16730
#	37218
#	54868
#	70343
#	84324
#	109163
#	124774
#	144977
#	164794
#	190075
#	207602
#	224577
#	241376
#	258642
#	276828
#	299119
#	316892
#
# Disc length: 4405 seconds
#
# Revision: 0
# Processed by: cddbd v1.5.2PL0 Copyright (c) Steve Scherf et al.
# Submitted via: audiograbber 1.83.01
#
DISCID=1f113312
DTITLE=Demis Roussos - The Best Of
DYEAR=1900
DGENRE=Ambient
TTITLE0=Forever and ever
TTITLE1=We shall dance
TTITLE2=Goodby my love goodbye
TTITLE3=Rain and tears
TTITLE4=Happy to be on an island in the sun
TTITLE5=My friend the wind
TTITLE6=Lovely lady of Africa
TTITLE7=My reason
TTITLE8=Because
TTITLE9=In my dreams
TTITLE10=Break
TTITLE11=End of the world
TTITLE12=I want to live
TTITLE13=It's five o' clock
TTITLE14=Marie Jolie
TTITLE15=Spring summer winter and fall
TTITLE16=Such a funny night
TTITLE17=When forever has gone
EXTD=
EXTT0=
EXTT1=
EXTT2=
EXTT3=
EXTT4=
EXTT5=
EXTT6=
EXTT7=
EXTT8=
EXTT9=
EXTT10=
EXTT11=
EXTT12=
EXTT13=
EXTT14=
EXTT15=
EXTT16=
EXTT17=
PLAYORDER=
